<?xml version="1.0" standalone="no"?>
<!DOCTYPE svg PUBLIC "-//W3C//DTD SVG 20010904//EN"
 "http://www.w3.org/TR/2001/REC-SVG-20010904/DTD/svg10.dtd">
<svg version="1.0" xmlns="http://www.w3.org/2000/svg"
 width="512.000000pt" height="512.000000pt" viewBox="0 0 512.000000 512.000000"
 preserveAspectRatio="xMidYMid meet">
<metadata>
Created by potrace 1.11, written by Peter Selinger 2001-2013
</metadata>
<g transform="translate(0.000000,512.000000) scale(0.100000,-0.100000)"
fill="#000000" stroke="none">
<path d="M1680 4613 c0 -60 7 -211 15 -338 23 -351 34 -588 29 -596 -6 -10
-109 26 -407 143 -246 95 -451 168 -479 168 -12 0 -26 -24 -47 -79 -92 -239
-466 -1393 -495 -1527 l-7 -30 133 -42 c73 -23 268 -80 433 -128 165 -47 308
-88 318 -91 9 -3 17 -11 17 -17 0 -17 -139 -200 -336 -441 -175 -215 -294
-371 -294 -385 0 -25 1291 -949 1417 -1013 l31 -17 70 108 c38 59 139 220 225
357 85 138 171 272 190 298 l35 49 43 -59 c24 -32 123 -182 219 -333 225 -351
271 -420 281 -420 46 0 1399 1000 1399 1034 0 18 -102 162 -260 366 -201 260
-330 444 -318 455 6 6 288 92 508 155 118 34 264 77 323 97 l109 36 -7 35
c-11 59 -423 1245 -517 1490 -33 85 -43 102 -61 102 -36 0 -240 -74 -547 -199
-162 -65 -296 -118 -297 -118 -1 1 14 211 33 467 18 256 34 491 34 523 l0 57
-895 0 -895 0 0 -107z"/>
</g>
</svg>
